<svg width="1440" height="379" viewBox="0 0 1440 379" fill="none" xmlns="http://www.w3.org/2000/svg">
<path fill-rule="evenodd" clip-rule="evenodd" d="M-67.5018 228.88C-67.5018 228.88 58.1791 355.037 242.238 355.037C426.297 355.037 482.772 213.514 689.255 228.767C895.739 244.02 1004.08 322.338 1182.55 334.091C1529.66 356.95 1774.18 280.561 1774.18 280.561L1680.85 423.617L-121.822 385.712L-67.5018 228.88Z" fill="#E1BEE7"/>
<path fill-rule="evenodd" clip-rule="evenodd" d="M1762.77 213.468C1762.77 213.468 1654.05 354.024 1470.25 363.654C1286.45 373.285 1280.95 290.759 1075.56 316.769C870.165 342.779 871.467 388.029 693.869 409.084C615.326 418.395 463.63 194.945 167.123 322.715C-129.384 450.485 -619.51 124.424 -619.51 124.424L-202.315 410.162L1762.64 425.761L1762.77 213.468Z" fill="#DCEDC8"/>
<path fill-rule="evenodd" clip-rule="evenodd" d="M-73.0662 313.982C-73.0662 313.982 -35.6686 397.837 126.556 397.837C288.781 397.837 331.967 277.756 513.956 292.946C695.945 308.136 791.438 386.133 948.734 397.837C1254.67 420.602 1470.18 344.527 1470.18 344.527L1453.71 425.617L-89.8218 410.056L-73.0662 313.982Z" fill="white"/>
</svg>
