<svg width="1440" height="873" viewBox="0 0 1440 873" fill="none" xmlns="http://www.w3.org/2000/svg">
<path opacity="0.203753" fill-rule="evenodd" clip-rule="evenodd" d="M0 73.1403C0 73.1403 283.196 174.596 548.438 174.596C813.679 174.596 949.747 36.6011 1106.44 6.99283C1263.13 -22.6154 1440 73.1403 1440 73.1403V883H0V73.1403Z" fill="#E1BEE7"/>
<mask id="mask0_0_464" style="mask-type:alpha" maskUnits="userSpaceOnUse" x="0" y="1" width="1440" height="882">
<path fill-rule="evenodd" clip-rule="evenodd" d="M0 73.1403C0 73.1403 283.196 174.596 548.438 174.596C813.679 174.596 949.747 36.6011 1106.44 6.99283C1263.13 -22.6154 1440 73.1403 1440 73.1403V883H0V73.1403Z" fill="white"/>
</mask>
<g mask="url(#mask0_0_464)">
<path fill-rule="evenodd" clip-rule="evenodd" d="M-67.5018 722.88C-67.5018 722.88 58.1791 849.037 242.238 849.037C426.297 849.037 482.772 707.514 689.255 722.767C895.739 738.02 1004.08 816.338 1182.55 828.091C1529.66 850.95 1774.18 774.561 1774.18 774.561L1680.85 917.617L-121.822 879.712L-67.5018 722.88Z" fill="#E1BEE7"/>
<path fill-rule="evenodd" clip-rule="evenodd" d="M1762.77 707.468C1762.77 707.468 1654.05 848.024 1470.25 857.654C1286.45 867.285 1280.95 784.759 1075.56 810.769C870.165 836.779 871.467 882.029 693.869 903.084C615.326 912.395 463.631 688.945 167.123 816.715C-129.384 944.485 -619.51 618.424 -619.51 618.424L-202.315 904.162L1762.64 919.761L1762.77 707.468Z" fill="#DCEDC8"/>
<path fill-rule="evenodd" clip-rule="evenodd" d="M-73.0662 807.982C-73.0662 807.982 -35.6686 891.837 126.556 891.837C288.781 891.837 331.967 771.756 513.956 786.946C695.945 802.136 791.438 880.133 948.734 891.837C1254.67 914.602 1470.18 838.527 1470.18 838.527L1453.71 919.617L-89.8218 904.056L-73.0662 807.982Z" fill="white"/>
</g>
</svg>
